<mxfile host="app.diagrams.net" modified="2021-10-26T16:28:12.528Z" agent="5.0 (Macintosh; Intel Mac OS X 10_15_7) AppleWebKit/537.36 (KHTML, like Gecko) Chrome/94.0.4606.81 Safari/537.36" etag="q8m64fpeJj9ualQARdY8" version="15.5.8" type="github" pages="2">
  <diagram id="iS51ezdleT5w62Py4joQ" name="templated01">
    <mxGraphModel dx="902" dy="357" grid="1" gridSize="10" guides="1" tooltips="1" connect="1" arrows="1" fold="1" page="1" pageScale="1" pageWidth="1169" pageHeight="827" math="0" shadow="0">
      <root>
        <mxCell id="0" />
        <mxCell id="1" parent="0" />
        <mxCell id="sL5stat3IgHk66CsYpOu-1" style="edgeStyle=none;rounded=0;orthogonalLoop=1;jettySize=auto;html=1;exitX=0.5;exitY=0;exitDx=0;exitDy=0;entryX=0.5;entryY=1;entryDx=0;entryDy=0;startArrow=none;startFill=0;endArrow=none;endFill=0;strokeColor=#98A2AE;strokeWidth=1;fontFamily=Manrope;fontSize=10;fontColor=#BEC8D2;" edge="1" parent="1" source="sL5stat3IgHk66CsYpOu-15" target="sL5stat3IgHk66CsYpOu-11">
          <mxGeometry relative="1" as="geometry" />
        </mxCell>
        <mxCell id="sL5stat3IgHk66CsYpOu-4" style="edgeStyle=none;rounded=0;orthogonalLoop=1;jettySize=auto;html=1;entryX=0.5;entryY=1;entryDx=0;entryDy=0;startArrow=none;startFill=0;endArrow=none;endFill=0;strokeColor=#98A2AE;strokeWidth=1;fontFamily=Manrope;fontSize=10;fontColor=#BEC8D2;exitX=0.5;exitY=0;exitDx=0;exitDy=0;" edge="1" parent="1" source="sL5stat3IgHk66CsYpOu-16" target="sL5stat3IgHk66CsYpOu-11">
          <mxGeometry relative="1" as="geometry">
            <mxPoint x="569" y="297.42" as="sourcePoint" />
            <mxPoint x="565" y="295.42" as="targetPoint" />
          </mxGeometry>
        </mxCell>
        <mxCell id="sL5stat3IgHk66CsYpOu-5" style="edgeStyle=none;rounded=0;orthogonalLoop=1;jettySize=auto;html=1;entryX=0.5;entryY=1;entryDx=0;entryDy=0;startArrow=none;startFill=0;endArrow=none;endFill=0;strokeColor=#98A2AE;strokeWidth=1;fontFamily=Manrope;fontSize=10;fontColor=#BEC8D2;exitX=0.5;exitY=0;exitDx=0;exitDy=0;" edge="1" parent="1" source="sL5stat3IgHk66CsYpOu-15" target="sL5stat3IgHk66CsYpOu-12">
          <mxGeometry relative="1" as="geometry">
            <mxPoint x="581" y="307.42" as="sourcePoint" />
            <mxPoint x="565" y="295.42" as="targetPoint" />
          </mxGeometry>
        </mxCell>
        <mxCell id="sL5stat3IgHk66CsYpOu-6" style="edgeStyle=none;rounded=0;orthogonalLoop=1;jettySize=auto;html=1;entryX=0.5;entryY=0;entryDx=0;entryDy=0;startArrow=none;startFill=0;endArrow=none;endFill=0;strokeColor=#98A2AE;strokeWidth=1;fontFamily=Manrope;fontSize=10;fontColor=#BEC8D2;exitX=0.5;exitY=1;exitDx=0;exitDy=0;" edge="1" parent="1" source="sL5stat3IgHk66CsYpOu-12" target="sL5stat3IgHk66CsYpOu-16">
          <mxGeometry relative="1" as="geometry">
            <mxPoint x="580.9999999999999" y="307.42" as="sourcePoint" />
            <mxPoint x="565" y="295.42" as="targetPoint" />
          </mxGeometry>
        </mxCell>
        <mxCell id="sL5stat3IgHk66CsYpOu-7" style="edgeStyle=none;rounded=0;orthogonalLoop=1;jettySize=auto;html=1;entryX=0.5;entryY=1;entryDx=0;entryDy=0;startArrow=none;startFill=0;endArrow=none;endFill=0;strokeColor=#98A2AE;strokeWidth=1;fontFamily=Manrope;fontSize=10;fontColor=#BEC8D2;exitX=0.5;exitY=0;exitDx=0;exitDy=0;" edge="1" parent="1" source="sL5stat3IgHk66CsYpOu-17" target="sL5stat3IgHk66CsYpOu-11">
          <mxGeometry relative="1" as="geometry">
            <mxPoint x="610.9999999999998" y="307.42" as="sourcePoint" />
            <mxPoint x="625" y="295.4200000000001" as="targetPoint" />
          </mxGeometry>
        </mxCell>
        <mxCell id="sL5stat3IgHk66CsYpOu-8" style="edgeStyle=none;rounded=0;orthogonalLoop=1;jettySize=auto;html=1;entryX=0.5;entryY=1;entryDx=0;entryDy=0;startArrow=none;startFill=0;endArrow=none;endFill=0;strokeColor=#98A2AE;strokeWidth=1;fontFamily=Manrope;fontSize=10;fontColor=#BEC8D2;exitX=0.5;exitY=0;exitDx=0;exitDy=0;" edge="1" parent="1" source="sL5stat3IgHk66CsYpOu-17" target="sL5stat3IgHk66CsYpOu-12">
          <mxGeometry relative="1" as="geometry">
            <mxPoint x="610.9999999999998" y="307.42" as="sourcePoint" />
            <mxPoint x="564.9999999999999" y="295.4200000000001" as="targetPoint" />
          </mxGeometry>
        </mxCell>
        <mxCell id="sL5stat3IgHk66CsYpOu-9" style="edgeStyle=none;rounded=0;orthogonalLoop=1;jettySize=auto;html=1;entryX=0.5;entryY=1;entryDx=0;entryDy=0;startArrow=none;startFill=0;endArrow=none;endFill=0;strokeColor=#98A2AE;strokeWidth=1;fontFamily=Manrope;fontSize=10;fontColor=#BEC8D2;exitX=0.5;exitY=0;exitDx=0;exitDy=0;" edge="1" parent="1" source="sL5stat3IgHk66CsYpOu-18" target="sL5stat3IgHk66CsYpOu-11">
          <mxGeometry relative="1" as="geometry">
            <mxPoint x="641" y="307.42" as="sourcePoint" />
            <mxPoint x="624.9999999999999" y="295.42" as="targetPoint" />
          </mxGeometry>
        </mxCell>
        <mxCell id="sL5stat3IgHk66CsYpOu-10" style="edgeStyle=none;rounded=0;orthogonalLoop=1;jettySize=auto;html=1;entryX=0.5;entryY=1;entryDx=0;entryDy=0;startArrow=none;startFill=0;endArrow=none;endFill=0;strokeColor=#98A2AE;strokeWidth=1;fontFamily=Manrope;fontSize=10;fontColor=#BEC8D2;exitX=0.5;exitY=0;exitDx=0;exitDy=0;" edge="1" parent="1" source="sL5stat3IgHk66CsYpOu-18" target="sL5stat3IgHk66CsYpOu-12">
          <mxGeometry relative="1" as="geometry">
            <mxPoint x="641" y="307.42" as="sourcePoint" />
            <mxPoint x="565" y="295.42" as="targetPoint" />
          </mxGeometry>
        </mxCell>
        <mxCell id="sL5stat3IgHk66CsYpOu-11" value="" style="ellipse;whiteSpace=wrap;html=1;aspect=fixed;rounded=1;gradientColor=none;fontFamily=Manrope;fontSize=10;fontColor=#BEC8D2;align=right;strokeColor=none;fillColor=#124191;" vertex="1" parent="1">
          <mxGeometry x="496" y="255.42" width="24" height="24" as="geometry" />
        </mxCell>
        <mxCell id="sL5stat3IgHk66CsYpOu-12" value="" style="ellipse;whiteSpace=wrap;html=1;aspect=fixed;rounded=1;gradientColor=none;fontFamily=Manrope;fontSize=10;fontColor=#BEC8D2;align=right;strokeColor=none;fillColor=#124191;" vertex="1" parent="1">
          <mxGeometry x="538.5" y="255.42" width="24" height="24" as="geometry" />
        </mxCell>
        <mxCell id="sL5stat3IgHk66CsYpOu-15" value="" style="ellipse;whiteSpace=wrap;html=1;aspect=fixed;rounded=1;gradientColor=none;fontFamily=Manrope;fontSize=10;fontColor=#BEC8D2;align=right;strokeColor=none;fillColor=#00C9FF;" vertex="1" parent="1">
          <mxGeometry x="472" y="320" width="24" height="24" as="geometry" />
        </mxCell>
        <mxCell id="sL5stat3IgHk66CsYpOu-16" value="" style="ellipse;whiteSpace=wrap;html=1;aspect=fixed;rounded=1;gradientColor=none;fontFamily=Manrope;fontSize=10;fontColor=#BEC8D2;align=right;strokeColor=none;fillColor=#00C9FF;" vertex="1" parent="1">
          <mxGeometry x="510" y="320" width="24" height="24" as="geometry" />
        </mxCell>
        <mxCell id="sL5stat3IgHk66CsYpOu-17" value="" style="ellipse;whiteSpace=wrap;html=1;aspect=fixed;rounded=1;gradientColor=none;fontFamily=Manrope;fontSize=10;fontColor=#BEC8D2;align=right;strokeColor=none;fillColor=#00C9FF;" vertex="1" parent="1">
          <mxGeometry x="550" y="320" width="24" height="24" as="geometry" />
        </mxCell>
        <mxCell id="sL5stat3IgHk66CsYpOu-18" value="" style="ellipse;whiteSpace=wrap;html=1;aspect=fixed;rounded=1;gradientColor=none;fontFamily=Manrope;fontSize=10;fontColor=#BEC8D2;align=right;strokeColor=none;fillColor=#00C9FF;" vertex="1" parent="1">
          <mxGeometry x="610" y="320" width="24" height="24" as="geometry" />
        </mxCell>
        <mxCell id="sL5stat3IgHk66CsYpOu-39" value="..." style="text;html=1;strokeColor=none;fillColor=none;align=center;verticalAlign=middle;whiteSpace=wrap;rounded=0;" vertex="1" parent="1">
          <mxGeometry x="557.5" y="252.42" width="27.5" height="30" as="geometry" />
        </mxCell>
        <mxCell id="sL5stat3IgHk66CsYpOu-40" value="..." style="text;html=1;strokeColor=none;fillColor=none;align=center;verticalAlign=middle;whiteSpace=wrap;rounded=0;" vertex="1" parent="1">
          <mxGeometry x="574" y="320" width="30" height="24" as="geometry" />
        </mxCell>
        <mxCell id="sL5stat3IgHk66CsYpOu-42" value="" style="shape=curlyBracket;whiteSpace=wrap;html=1;rounded=1;rotation=90;" vertex="1" parent="1">
          <mxGeometry x="540" y="190" width="20" height="100" as="geometry" />
        </mxCell>
        <mxCell id="sL5stat3IgHk66CsYpOu-43" value="" style="shape=curlyBracket;whiteSpace=wrap;html=1;rounded=1;rotation=-90;" vertex="1" parent="1">
          <mxGeometry x="543.12" y="276.88" width="20" height="166.25" as="geometry" />
        </mxCell>
        <mxCell id="sL5stat3IgHk66CsYpOu-44" value="M x Leaves" style="text;html=1;strokeColor=none;fillColor=none;align=center;verticalAlign=middle;whiteSpace=wrap;rounded=0;" vertex="1" parent="1">
          <mxGeometry x="500.12" y="370" width="106" height="30" as="geometry" />
        </mxCell>
        <mxCell id="sL5stat3IgHk66CsYpOu-45" value="N x Spines" style="text;html=1;strokeColor=none;fillColor=none;align=center;verticalAlign=middle;whiteSpace=wrap;rounded=0;" vertex="1" parent="1">
          <mxGeometry x="500.12" y="200" width="106" height="30" as="geometry" />
        </mxCell>
        <mxCell id="sL5stat3IgHk66CsYpOu-50" value="" style="ellipse;whiteSpace=wrap;html=1;aspect=fixed;rounded=1;gradientColor=none;fontFamily=Manrope;fontSize=10;fontColor=#BEC8D2;align=right;strokeColor=none;fillColor=#124191;" vertex="1" parent="1">
          <mxGeometry x="585" y="255.41999999999996" width="24" height="24" as="geometry" />
        </mxCell>
        <mxCell id="sL5stat3IgHk66CsYpOu-51" style="edgeStyle=none;rounded=0;orthogonalLoop=1;jettySize=auto;html=1;entryX=0.5;entryY=1;entryDx=0;entryDy=0;startArrow=none;startFill=0;endArrow=none;endFill=0;strokeColor=#98A2AE;strokeWidth=1;fontFamily=Manrope;fontSize=10;fontColor=#BEC8D2;exitX=0.5;exitY=0;exitDx=0;exitDy=0;" edge="1" parent="1" source="sL5stat3IgHk66CsYpOu-18" target="sL5stat3IgHk66CsYpOu-50">
          <mxGeometry relative="1" as="geometry">
            <mxPoint x="632" y="330" as="sourcePoint" />
            <mxPoint x="560.5" y="289.41999999999996" as="targetPoint" />
          </mxGeometry>
        </mxCell>
        <mxCell id="sL5stat3IgHk66CsYpOu-52" style="edgeStyle=none;rounded=0;orthogonalLoop=1;jettySize=auto;html=1;startArrow=none;startFill=0;endArrow=none;endFill=0;strokeColor=#98A2AE;strokeWidth=1;fontFamily=Manrope;fontSize=10;fontColor=#BEC8D2;exitX=0.5;exitY=0;exitDx=0;exitDy=0;entryX=0.5;entryY=1;entryDx=0;entryDy=0;" edge="1" parent="1" source="sL5stat3IgHk66CsYpOu-17" target="sL5stat3IgHk66CsYpOu-50">
          <mxGeometry relative="1" as="geometry">
            <mxPoint x="632" y="330" as="sourcePoint" />
            <mxPoint x="616" y="280" as="targetPoint" />
          </mxGeometry>
        </mxCell>
        <mxCell id="sL5stat3IgHk66CsYpOu-53" style="edgeStyle=none;rounded=0;orthogonalLoop=1;jettySize=auto;html=1;startArrow=none;startFill=0;endArrow=none;endFill=0;strokeColor=#98A2AE;strokeWidth=1;fontFamily=Manrope;fontSize=10;fontColor=#BEC8D2;exitX=0.5;exitY=0;exitDx=0;exitDy=0;entryX=0.5;entryY=1;entryDx=0;entryDy=0;" edge="1" parent="1" source="sL5stat3IgHk66CsYpOu-16" target="sL5stat3IgHk66CsYpOu-50">
          <mxGeometry relative="1" as="geometry">
            <mxPoint x="520" y="320" as="sourcePoint" />
            <mxPoint x="620" y="280" as="targetPoint" />
          </mxGeometry>
        </mxCell>
        <mxCell id="sL5stat3IgHk66CsYpOu-54" style="edgeStyle=none;rounded=0;orthogonalLoop=1;jettySize=auto;html=1;startArrow=none;startFill=0;endArrow=none;endFill=0;strokeColor=#98A2AE;strokeWidth=1;fontFamily=Manrope;fontSize=10;fontColor=#BEC8D2;exitX=0.5;exitY=0;exitDx=0;exitDy=0;entryX=0.5;entryY=1;entryDx=0;entryDy=0;" edge="1" parent="1" source="sL5stat3IgHk66CsYpOu-15" target="sL5stat3IgHk66CsYpOu-50">
          <mxGeometry relative="1" as="geometry">
            <mxPoint x="582" y="340" as="sourcePoint" />
            <mxPoint x="636" y="300" as="targetPoint" />
          </mxGeometry>
        </mxCell>
      </root>
    </mxGraphModel>
  </diagram>
  <diagram id="h8RkDmVLK7b1w_zVVMcj" name="templated02">
    <mxGraphModel dx="1546" dy="611" grid="1" gridSize="10" guides="1" tooltips="1" connect="1" arrows="1" fold="1" page="1" pageScale="1" pageWidth="1169" pageHeight="827" math="0" shadow="0">
      <root>
        <mxCell id="A0GcrbxxkYMi1dtwf7WZ-0" />
        <mxCell id="A0GcrbxxkYMi1dtwf7WZ-1" parent="A0GcrbxxkYMi1dtwf7WZ-0" />
        <mxCell id="J5tVah5155WVLjbqDvri-25" style="edgeStyle=none;rounded=0;orthogonalLoop=1;jettySize=auto;html=1;exitX=0.5;exitY=0;exitDx=0;exitDy=0;entryX=0.5;entryY=1;entryDx=0;entryDy=0;startArrow=none;startFill=0;endArrow=none;endFill=0;strokeColor=#98A2AE;strokeWidth=1;fontFamily=Manrope;fontSize=10;fontColor=#BEC8D2;" edge="1" parent="A0GcrbxxkYMi1dtwf7WZ-1" source="J5tVah5155WVLjbqDvri-35" target="J5tVah5155WVLjbqDvri-33">
          <mxGeometry relative="1" as="geometry" />
        </mxCell>
        <mxCell id="J5tVah5155WVLjbqDvri-26" style="edgeStyle=none;rounded=0;orthogonalLoop=1;jettySize=auto;html=1;entryX=0.5;entryY=1;entryDx=0;entryDy=0;startArrow=none;startFill=0;endArrow=none;endFill=0;strokeColor=#98A2AE;strokeWidth=1;fontFamily=Manrope;fontSize=10;fontColor=#BEC8D2;exitX=0.5;exitY=0;exitDx=0;exitDy=0;" edge="1" parent="A0GcrbxxkYMi1dtwf7WZ-1" source="J5tVah5155WVLjbqDvri-36" target="J5tVah5155WVLjbqDvri-33">
          <mxGeometry relative="1" as="geometry">
            <mxPoint x="327" y="357.42" as="sourcePoint" />
            <mxPoint x="323" y="355.42" as="targetPoint" />
          </mxGeometry>
        </mxCell>
        <mxCell id="J5tVah5155WVLjbqDvri-27" style="edgeStyle=none;rounded=0;orthogonalLoop=1;jettySize=auto;html=1;entryX=0.5;entryY=1;entryDx=0;entryDy=0;startArrow=none;startFill=0;endArrow=none;endFill=0;strokeColor=#98A2AE;strokeWidth=1;fontFamily=Manrope;fontSize=10;fontColor=#BEC8D2;exitX=0.5;exitY=0;exitDx=0;exitDy=0;" edge="1" parent="A0GcrbxxkYMi1dtwf7WZ-1" source="J5tVah5155WVLjbqDvri-35" target="J5tVah5155WVLjbqDvri-34">
          <mxGeometry relative="1" as="geometry">
            <mxPoint x="339" y="367.42" as="sourcePoint" />
            <mxPoint x="323" y="355.42" as="targetPoint" />
          </mxGeometry>
        </mxCell>
        <mxCell id="J5tVah5155WVLjbqDvri-28" style="edgeStyle=none;rounded=0;orthogonalLoop=1;jettySize=auto;html=1;entryX=0.5;entryY=0;entryDx=0;entryDy=0;startArrow=none;startFill=0;endArrow=none;endFill=0;strokeColor=#98A2AE;strokeWidth=1;fontFamily=Manrope;fontSize=10;fontColor=#BEC8D2;exitX=0.5;exitY=1;exitDx=0;exitDy=0;" edge="1" parent="A0GcrbxxkYMi1dtwf7WZ-1" source="J5tVah5155WVLjbqDvri-34" target="J5tVah5155WVLjbqDvri-36">
          <mxGeometry relative="1" as="geometry">
            <mxPoint x="338.9999999999999" y="367.42" as="sourcePoint" />
            <mxPoint x="323" y="355.42" as="targetPoint" />
          </mxGeometry>
        </mxCell>
        <mxCell id="J5tVah5155WVLjbqDvri-29" style="edgeStyle=none;rounded=0;orthogonalLoop=1;jettySize=auto;html=1;entryX=0.5;entryY=1;entryDx=0;entryDy=0;startArrow=none;startFill=0;endArrow=none;endFill=0;strokeColor=#98A2AE;strokeWidth=1;fontFamily=Manrope;fontSize=10;fontColor=#BEC8D2;exitX=0.5;exitY=0;exitDx=0;exitDy=0;" edge="1" parent="A0GcrbxxkYMi1dtwf7WZ-1" source="J5tVah5155WVLjbqDvri-37" target="J5tVah5155WVLjbqDvri-33">
          <mxGeometry relative="1" as="geometry">
            <mxPoint x="368.9999999999998" y="367.42" as="sourcePoint" />
            <mxPoint x="383" y="355.4200000000001" as="targetPoint" />
          </mxGeometry>
        </mxCell>
        <mxCell id="J5tVah5155WVLjbqDvri-30" style="edgeStyle=none;rounded=0;orthogonalLoop=1;jettySize=auto;html=1;entryX=0.5;entryY=1;entryDx=0;entryDy=0;startArrow=none;startFill=0;endArrow=none;endFill=0;strokeColor=#98A2AE;strokeWidth=1;fontFamily=Manrope;fontSize=10;fontColor=#BEC8D2;exitX=0.5;exitY=0;exitDx=0;exitDy=0;" edge="1" parent="A0GcrbxxkYMi1dtwf7WZ-1" source="J5tVah5155WVLjbqDvri-37" target="J5tVah5155WVLjbqDvri-34">
          <mxGeometry relative="1" as="geometry">
            <mxPoint x="368.9999999999998" y="367.42" as="sourcePoint" />
            <mxPoint x="322.9999999999999" y="355.4200000000001" as="targetPoint" />
          </mxGeometry>
        </mxCell>
        <mxCell id="J5tVah5155WVLjbqDvri-31" style="edgeStyle=none;rounded=0;orthogonalLoop=1;jettySize=auto;html=1;entryX=0.5;entryY=1;entryDx=0;entryDy=0;startArrow=none;startFill=0;endArrow=none;endFill=0;strokeColor=#98A2AE;strokeWidth=1;fontFamily=Manrope;fontSize=10;fontColor=#BEC8D2;exitX=0.5;exitY=0;exitDx=0;exitDy=0;" edge="1" parent="A0GcrbxxkYMi1dtwf7WZ-1" source="J5tVah5155WVLjbqDvri-38" target="J5tVah5155WVLjbqDvri-33">
          <mxGeometry relative="1" as="geometry">
            <mxPoint x="399" y="367.42" as="sourcePoint" />
            <mxPoint x="382.9999999999999" y="355.42" as="targetPoint" />
          </mxGeometry>
        </mxCell>
        <mxCell id="J5tVah5155WVLjbqDvri-32" style="edgeStyle=none;rounded=0;orthogonalLoop=1;jettySize=auto;html=1;entryX=0.5;entryY=1;entryDx=0;entryDy=0;startArrow=none;startFill=0;endArrow=none;endFill=0;strokeColor=#98A2AE;strokeWidth=1;fontFamily=Manrope;fontSize=10;fontColor=#BEC8D2;exitX=0.5;exitY=0;exitDx=0;exitDy=0;" edge="1" parent="A0GcrbxxkYMi1dtwf7WZ-1" source="J5tVah5155WVLjbqDvri-38" target="J5tVah5155WVLjbqDvri-34">
          <mxGeometry relative="1" as="geometry">
            <mxPoint x="399" y="367.42" as="sourcePoint" />
            <mxPoint x="323" y="355.42" as="targetPoint" />
          </mxGeometry>
        </mxCell>
        <mxCell id="J5tVah5155WVLjbqDvri-33" value="" style="ellipse;whiteSpace=wrap;html=1;aspect=fixed;rounded=1;gradientColor=none;fontFamily=Manrope;fontSize=10;fontColor=#BEC8D2;align=right;strokeColor=none;fillColor=#124191;" vertex="1" parent="A0GcrbxxkYMi1dtwf7WZ-1">
          <mxGeometry x="254" y="315.41999999999996" width="24" height="24" as="geometry" />
        </mxCell>
        <mxCell id="J5tVah5155WVLjbqDvri-34" value="" style="ellipse;whiteSpace=wrap;html=1;aspect=fixed;rounded=1;gradientColor=none;fontFamily=Manrope;fontSize=10;fontColor=#BEC8D2;align=right;strokeColor=none;fillColor=#124191;" vertex="1" parent="A0GcrbxxkYMi1dtwf7WZ-1">
          <mxGeometry x="296.5" y="315.41999999999996" width="24" height="24" as="geometry" />
        </mxCell>
        <mxCell id="J5tVah5155WVLjbqDvri-35" value="" style="ellipse;whiteSpace=wrap;html=1;aspect=fixed;rounded=1;gradientColor=none;fontFamily=Manrope;fontSize=10;fontColor=#BEC8D2;align=right;strokeColor=none;fillColor=#00C9FF;" vertex="1" parent="A0GcrbxxkYMi1dtwf7WZ-1">
          <mxGeometry x="230" y="380" width="24" height="24" as="geometry" />
        </mxCell>
        <mxCell id="J5tVah5155WVLjbqDvri-36" value="" style="ellipse;whiteSpace=wrap;html=1;aspect=fixed;rounded=1;gradientColor=none;fontFamily=Manrope;fontSize=10;fontColor=#BEC8D2;align=right;strokeColor=none;fillColor=#00C9FF;" vertex="1" parent="A0GcrbxxkYMi1dtwf7WZ-1">
          <mxGeometry x="268" y="380" width="24" height="24" as="geometry" />
        </mxCell>
        <mxCell id="J5tVah5155WVLjbqDvri-37" value="" style="ellipse;whiteSpace=wrap;html=1;aspect=fixed;rounded=1;gradientColor=none;fontFamily=Manrope;fontSize=10;fontColor=#BEC8D2;align=right;strokeColor=none;fillColor=#00C9FF;" vertex="1" parent="A0GcrbxxkYMi1dtwf7WZ-1">
          <mxGeometry x="308" y="380" width="24" height="24" as="geometry" />
        </mxCell>
        <mxCell id="J5tVah5155WVLjbqDvri-38" value="" style="ellipse;whiteSpace=wrap;html=1;aspect=fixed;rounded=1;gradientColor=none;fontFamily=Manrope;fontSize=10;fontColor=#BEC8D2;align=right;strokeColor=none;fillColor=#00C9FF;" vertex="1" parent="A0GcrbxxkYMi1dtwf7WZ-1">
          <mxGeometry x="368" y="380" width="24" height="24" as="geometry" />
        </mxCell>
        <mxCell id="J5tVah5155WVLjbqDvri-39" value="..." style="text;html=1;strokeColor=none;fillColor=none;align=center;verticalAlign=middle;whiteSpace=wrap;rounded=0;" vertex="1" parent="A0GcrbxxkYMi1dtwf7WZ-1">
          <mxGeometry x="315.5" y="312.41999999999996" width="27.5" height="30" as="geometry" />
        </mxCell>
        <mxCell id="J5tVah5155WVLjbqDvri-40" value="..." style="text;html=1;strokeColor=none;fillColor=none;align=center;verticalAlign=middle;whiteSpace=wrap;rounded=0;" vertex="1" parent="A0GcrbxxkYMi1dtwf7WZ-1">
          <mxGeometry x="332" y="380" width="30" height="24" as="geometry" />
        </mxCell>
        <mxCell id="J5tVah5155WVLjbqDvri-42" value="" style="shape=curlyBracket;whiteSpace=wrap;html=1;rounded=1;rotation=-90;" vertex="1" parent="A0GcrbxxkYMi1dtwf7WZ-1">
          <mxGeometry x="301.12" y="336.88" width="20" height="166.25" as="geometry" />
        </mxCell>
        <mxCell id="J5tVah5155WVLjbqDvri-43" value="M x Leaves" style="text;html=1;strokeColor=none;fillColor=none;align=center;verticalAlign=middle;whiteSpace=wrap;rounded=0;" vertex="1" parent="A0GcrbxxkYMi1dtwf7WZ-1">
          <mxGeometry x="258.12" y="430" width="106" height="30" as="geometry" />
        </mxCell>
        <mxCell id="J5tVah5155WVLjbqDvri-45" value="" style="ellipse;whiteSpace=wrap;html=1;aspect=fixed;rounded=1;gradientColor=none;fontFamily=Manrope;fontSize=10;fontColor=#BEC8D2;align=right;strokeColor=none;fillColor=#124191;" vertex="1" parent="A0GcrbxxkYMi1dtwf7WZ-1">
          <mxGeometry x="343" y="315.41999999999996" width="24" height="24" as="geometry" />
        </mxCell>
        <mxCell id="J5tVah5155WVLjbqDvri-46" style="edgeStyle=none;rounded=0;orthogonalLoop=1;jettySize=auto;html=1;entryX=0.5;entryY=1;entryDx=0;entryDy=0;startArrow=none;startFill=0;endArrow=none;endFill=0;strokeColor=#98A2AE;strokeWidth=1;fontFamily=Manrope;fontSize=10;fontColor=#BEC8D2;exitX=0.5;exitY=0;exitDx=0;exitDy=0;" edge="1" parent="A0GcrbxxkYMi1dtwf7WZ-1" source="J5tVah5155WVLjbqDvri-38" target="J5tVah5155WVLjbqDvri-45">
          <mxGeometry relative="1" as="geometry">
            <mxPoint x="390" y="390" as="sourcePoint" />
            <mxPoint x="318.5" y="349.41999999999996" as="targetPoint" />
          </mxGeometry>
        </mxCell>
        <mxCell id="J5tVah5155WVLjbqDvri-47" style="edgeStyle=none;rounded=0;orthogonalLoop=1;jettySize=auto;html=1;startArrow=none;startFill=0;endArrow=none;endFill=0;strokeColor=#98A2AE;strokeWidth=1;fontFamily=Manrope;fontSize=10;fontColor=#BEC8D2;exitX=0.5;exitY=0;exitDx=0;exitDy=0;entryX=0.5;entryY=1;entryDx=0;entryDy=0;" edge="1" parent="A0GcrbxxkYMi1dtwf7WZ-1" source="J5tVah5155WVLjbqDvri-37" target="J5tVah5155WVLjbqDvri-45">
          <mxGeometry relative="1" as="geometry">
            <mxPoint x="390" y="390" as="sourcePoint" />
            <mxPoint x="374" y="340" as="targetPoint" />
          </mxGeometry>
        </mxCell>
        <mxCell id="J5tVah5155WVLjbqDvri-48" style="edgeStyle=none;rounded=0;orthogonalLoop=1;jettySize=auto;html=1;startArrow=none;startFill=0;endArrow=none;endFill=0;strokeColor=#98A2AE;strokeWidth=1;fontFamily=Manrope;fontSize=10;fontColor=#BEC8D2;exitX=0.5;exitY=0;exitDx=0;exitDy=0;entryX=0.5;entryY=1;entryDx=0;entryDy=0;" edge="1" parent="A0GcrbxxkYMi1dtwf7WZ-1" source="J5tVah5155WVLjbqDvri-36" target="J5tVah5155WVLjbqDvri-45">
          <mxGeometry relative="1" as="geometry">
            <mxPoint x="278" y="380" as="sourcePoint" />
            <mxPoint x="378" y="340" as="targetPoint" />
          </mxGeometry>
        </mxCell>
        <mxCell id="J5tVah5155WVLjbqDvri-49" style="edgeStyle=none;rounded=0;orthogonalLoop=1;jettySize=auto;html=1;startArrow=none;startFill=0;endArrow=none;endFill=0;strokeColor=#98A2AE;strokeWidth=1;fontFamily=Manrope;fontSize=10;fontColor=#BEC8D2;exitX=0.5;exitY=0;exitDx=0;exitDy=0;entryX=0.5;entryY=1;entryDx=0;entryDy=0;" edge="1" parent="A0GcrbxxkYMi1dtwf7WZ-1" source="J5tVah5155WVLjbqDvri-35" target="J5tVah5155WVLjbqDvri-45">
          <mxGeometry relative="1" as="geometry">
            <mxPoint x="340" y="400" as="sourcePoint" />
            <mxPoint x="394" y="360" as="targetPoint" />
          </mxGeometry>
        </mxCell>
        <mxCell id="J5tVah5155WVLjbqDvri-50" style="edgeStyle=none;rounded=0;orthogonalLoop=1;jettySize=auto;html=1;exitX=0.5;exitY=0;exitDx=0;exitDy=0;entryX=0.5;entryY=1;entryDx=0;entryDy=0;startArrow=none;startFill=0;endArrow=none;endFill=0;strokeColor=#98A2AE;strokeWidth=1;fontFamily=Manrope;fontSize=10;fontColor=#BEC8D2;" edge="1" parent="A0GcrbxxkYMi1dtwf7WZ-1" source="J5tVah5155WVLjbqDvri-60" target="J5tVah5155WVLjbqDvri-58">
          <mxGeometry relative="1" as="geometry" />
        </mxCell>
        <mxCell id="J5tVah5155WVLjbqDvri-51" style="edgeStyle=none;rounded=0;orthogonalLoop=1;jettySize=auto;html=1;entryX=0.5;entryY=1;entryDx=0;entryDy=0;startArrow=none;startFill=0;endArrow=none;endFill=0;strokeColor=#98A2AE;strokeWidth=1;fontFamily=Manrope;fontSize=10;fontColor=#BEC8D2;exitX=0.5;exitY=0;exitDx=0;exitDy=0;" edge="1" parent="A0GcrbxxkYMi1dtwf7WZ-1" source="J5tVah5155WVLjbqDvri-61" target="J5tVah5155WVLjbqDvri-58">
          <mxGeometry relative="1" as="geometry">
            <mxPoint x="537" y="357.42" as="sourcePoint" />
            <mxPoint x="533" y="355.42" as="targetPoint" />
          </mxGeometry>
        </mxCell>
        <mxCell id="J5tVah5155WVLjbqDvri-52" style="edgeStyle=none;rounded=0;orthogonalLoop=1;jettySize=auto;html=1;entryX=0.5;entryY=1;entryDx=0;entryDy=0;startArrow=none;startFill=0;endArrow=none;endFill=0;strokeColor=#98A2AE;strokeWidth=1;fontFamily=Manrope;fontSize=10;fontColor=#BEC8D2;exitX=0.5;exitY=0;exitDx=0;exitDy=0;" edge="1" parent="A0GcrbxxkYMi1dtwf7WZ-1" source="J5tVah5155WVLjbqDvri-60" target="J5tVah5155WVLjbqDvri-59">
          <mxGeometry relative="1" as="geometry">
            <mxPoint x="549" y="367.42" as="sourcePoint" />
            <mxPoint x="533" y="355.42" as="targetPoint" />
          </mxGeometry>
        </mxCell>
        <mxCell id="J5tVah5155WVLjbqDvri-53" style="edgeStyle=none;rounded=0;orthogonalLoop=1;jettySize=auto;html=1;entryX=0.5;entryY=0;entryDx=0;entryDy=0;startArrow=none;startFill=0;endArrow=none;endFill=0;strokeColor=#98A2AE;strokeWidth=1;fontFamily=Manrope;fontSize=10;fontColor=#BEC8D2;exitX=0.5;exitY=1;exitDx=0;exitDy=0;" edge="1" parent="A0GcrbxxkYMi1dtwf7WZ-1" source="J5tVah5155WVLjbqDvri-59" target="J5tVah5155WVLjbqDvri-61">
          <mxGeometry relative="1" as="geometry">
            <mxPoint x="548.9999999999999" y="367.42" as="sourcePoint" />
            <mxPoint x="533" y="355.42" as="targetPoint" />
          </mxGeometry>
        </mxCell>
        <mxCell id="J5tVah5155WVLjbqDvri-54" style="edgeStyle=none;rounded=0;orthogonalLoop=1;jettySize=auto;html=1;entryX=0.5;entryY=1;entryDx=0;entryDy=0;startArrow=none;startFill=0;endArrow=none;endFill=0;strokeColor=#98A2AE;strokeWidth=1;fontFamily=Manrope;fontSize=10;fontColor=#BEC8D2;exitX=0.5;exitY=0;exitDx=0;exitDy=0;" edge="1" parent="A0GcrbxxkYMi1dtwf7WZ-1" source="J5tVah5155WVLjbqDvri-62" target="J5tVah5155WVLjbqDvri-58">
          <mxGeometry relative="1" as="geometry">
            <mxPoint x="578.9999999999998" y="367.42" as="sourcePoint" />
            <mxPoint x="593" y="355.4200000000001" as="targetPoint" />
          </mxGeometry>
        </mxCell>
        <mxCell id="J5tVah5155WVLjbqDvri-55" style="edgeStyle=none;rounded=0;orthogonalLoop=1;jettySize=auto;html=1;entryX=0.5;entryY=1;entryDx=0;entryDy=0;startArrow=none;startFill=0;endArrow=none;endFill=0;strokeColor=#98A2AE;strokeWidth=1;fontFamily=Manrope;fontSize=10;fontColor=#BEC8D2;exitX=0.5;exitY=0;exitDx=0;exitDy=0;" edge="1" parent="A0GcrbxxkYMi1dtwf7WZ-1" source="J5tVah5155WVLjbqDvri-62" target="J5tVah5155WVLjbqDvri-59">
          <mxGeometry relative="1" as="geometry">
            <mxPoint x="578.9999999999998" y="367.42" as="sourcePoint" />
            <mxPoint x="532.9999999999999" y="355.4200000000001" as="targetPoint" />
          </mxGeometry>
        </mxCell>
        <mxCell id="J5tVah5155WVLjbqDvri-56" style="edgeStyle=none;rounded=0;orthogonalLoop=1;jettySize=auto;html=1;entryX=0.5;entryY=1;entryDx=0;entryDy=0;startArrow=none;startFill=0;endArrow=none;endFill=0;strokeColor=#98A2AE;strokeWidth=1;fontFamily=Manrope;fontSize=10;fontColor=#BEC8D2;exitX=0.5;exitY=0;exitDx=0;exitDy=0;" edge="1" parent="A0GcrbxxkYMi1dtwf7WZ-1" source="J5tVah5155WVLjbqDvri-63" target="J5tVah5155WVLjbqDvri-58">
          <mxGeometry relative="1" as="geometry">
            <mxPoint x="609" y="367.42" as="sourcePoint" />
            <mxPoint x="592.9999999999999" y="355.42" as="targetPoint" />
          </mxGeometry>
        </mxCell>
        <mxCell id="J5tVah5155WVLjbqDvri-57" style="edgeStyle=none;rounded=0;orthogonalLoop=1;jettySize=auto;html=1;entryX=0.5;entryY=1;entryDx=0;entryDy=0;startArrow=none;startFill=0;endArrow=none;endFill=0;strokeColor=#98A2AE;strokeWidth=1;fontFamily=Manrope;fontSize=10;fontColor=#BEC8D2;exitX=0.5;exitY=0;exitDx=0;exitDy=0;" edge="1" parent="A0GcrbxxkYMi1dtwf7WZ-1" source="J5tVah5155WVLjbqDvri-63" target="J5tVah5155WVLjbqDvri-59">
          <mxGeometry relative="1" as="geometry">
            <mxPoint x="609" y="367.42" as="sourcePoint" />
            <mxPoint x="533" y="355.42" as="targetPoint" />
          </mxGeometry>
        </mxCell>
        <mxCell id="J5tVah5155WVLjbqDvri-58" value="" style="ellipse;whiteSpace=wrap;html=1;aspect=fixed;rounded=1;gradientColor=none;fontFamily=Manrope;fontSize=10;fontColor=#BEC8D2;align=right;strokeColor=none;fillColor=#124191;" vertex="1" parent="A0GcrbxxkYMi1dtwf7WZ-1">
          <mxGeometry x="464" y="315.41999999999996" width="24" height="24" as="geometry" />
        </mxCell>
        <mxCell id="J5tVah5155WVLjbqDvri-59" value="" style="ellipse;whiteSpace=wrap;html=1;aspect=fixed;rounded=1;gradientColor=none;fontFamily=Manrope;fontSize=10;fontColor=#BEC8D2;align=right;strokeColor=none;fillColor=#124191;" vertex="1" parent="A0GcrbxxkYMi1dtwf7WZ-1">
          <mxGeometry x="506.5" y="315.41999999999996" width="24" height="24" as="geometry" />
        </mxCell>
        <mxCell id="J5tVah5155WVLjbqDvri-60" value="" style="ellipse;whiteSpace=wrap;html=1;aspect=fixed;rounded=1;gradientColor=none;fontFamily=Manrope;fontSize=10;fontColor=#BEC8D2;align=right;strokeColor=none;fillColor=#00C9FF;" vertex="1" parent="A0GcrbxxkYMi1dtwf7WZ-1">
          <mxGeometry x="440" y="380" width="24" height="24" as="geometry" />
        </mxCell>
        <mxCell id="J5tVah5155WVLjbqDvri-61" value="" style="ellipse;whiteSpace=wrap;html=1;aspect=fixed;rounded=1;gradientColor=none;fontFamily=Manrope;fontSize=10;fontColor=#BEC8D2;align=right;strokeColor=none;fillColor=#00C9FF;" vertex="1" parent="A0GcrbxxkYMi1dtwf7WZ-1">
          <mxGeometry x="478" y="380" width="24" height="24" as="geometry" />
        </mxCell>
        <mxCell id="J5tVah5155WVLjbqDvri-62" value="" style="ellipse;whiteSpace=wrap;html=1;aspect=fixed;rounded=1;gradientColor=none;fontFamily=Manrope;fontSize=10;fontColor=#BEC8D2;align=right;strokeColor=none;fillColor=#00C9FF;" vertex="1" parent="A0GcrbxxkYMi1dtwf7WZ-1">
          <mxGeometry x="518" y="380" width="24" height="24" as="geometry" />
        </mxCell>
        <mxCell id="J5tVah5155WVLjbqDvri-63" value="" style="ellipse;whiteSpace=wrap;html=1;aspect=fixed;rounded=1;gradientColor=none;fontFamily=Manrope;fontSize=10;fontColor=#BEC8D2;align=right;strokeColor=none;fillColor=#00C9FF;" vertex="1" parent="A0GcrbxxkYMi1dtwf7WZ-1">
          <mxGeometry x="578" y="380" width="24" height="24" as="geometry" />
        </mxCell>
        <mxCell id="J5tVah5155WVLjbqDvri-64" value="..." style="text;html=1;strokeColor=none;fillColor=none;align=center;verticalAlign=middle;whiteSpace=wrap;rounded=0;" vertex="1" parent="A0GcrbxxkYMi1dtwf7WZ-1">
          <mxGeometry x="525.5" y="312.41999999999996" width="27.5" height="30" as="geometry" />
        </mxCell>
        <mxCell id="J5tVah5155WVLjbqDvri-65" value="..." style="text;html=1;strokeColor=none;fillColor=none;align=center;verticalAlign=middle;whiteSpace=wrap;rounded=0;" vertex="1" parent="A0GcrbxxkYMi1dtwf7WZ-1">
          <mxGeometry x="542" y="380" width="30" height="24" as="geometry" />
        </mxCell>
        <mxCell id="J5tVah5155WVLjbqDvri-66" value="" style="shape=curlyBracket;whiteSpace=wrap;html=1;rounded=1;rotation=0;" vertex="1" parent="A0GcrbxxkYMi1dtwf7WZ-1">
          <mxGeometry x="220" y="310" width="20" height="40" as="geometry" />
        </mxCell>
        <mxCell id="J5tVah5155WVLjbqDvri-67" value="" style="shape=curlyBracket;whiteSpace=wrap;html=1;rounded=1;rotation=-90;" vertex="1" parent="A0GcrbxxkYMi1dtwf7WZ-1">
          <mxGeometry x="511.12" y="336.88" width="20" height="166.25" as="geometry" />
        </mxCell>
        <mxCell id="J5tVah5155WVLjbqDvri-68" value="M x Leaves" style="text;html=1;strokeColor=none;fillColor=none;align=center;verticalAlign=middle;whiteSpace=wrap;rounded=0;" vertex="1" parent="A0GcrbxxkYMi1dtwf7WZ-1">
          <mxGeometry x="468.12" y="430" width="106" height="30" as="geometry" />
        </mxCell>
        <mxCell id="J5tVah5155WVLjbqDvri-69" value="N x Spines" style="text;html=1;strokeColor=none;fillColor=none;align=center;verticalAlign=middle;whiteSpace=wrap;rounded=0;" vertex="1" parent="A0GcrbxxkYMi1dtwf7WZ-1">
          <mxGeometry x="134" y="315.42" width="106" height="30" as="geometry" />
        </mxCell>
        <mxCell id="J5tVah5155WVLjbqDvri-70" value="" style="ellipse;whiteSpace=wrap;html=1;aspect=fixed;rounded=1;gradientColor=none;fontFamily=Manrope;fontSize=10;fontColor=#BEC8D2;align=right;strokeColor=none;fillColor=#124191;" vertex="1" parent="A0GcrbxxkYMi1dtwf7WZ-1">
          <mxGeometry x="553" y="315.41999999999996" width="24" height="24" as="geometry" />
        </mxCell>
        <mxCell id="J5tVah5155WVLjbqDvri-71" style="edgeStyle=none;rounded=0;orthogonalLoop=1;jettySize=auto;html=1;entryX=0.5;entryY=1;entryDx=0;entryDy=0;startArrow=none;startFill=0;endArrow=none;endFill=0;strokeColor=#98A2AE;strokeWidth=1;fontFamily=Manrope;fontSize=10;fontColor=#BEC8D2;exitX=0.5;exitY=0;exitDx=0;exitDy=0;" edge="1" parent="A0GcrbxxkYMi1dtwf7WZ-1" source="J5tVah5155WVLjbqDvri-63" target="J5tVah5155WVLjbqDvri-70">
          <mxGeometry relative="1" as="geometry">
            <mxPoint x="600" y="390" as="sourcePoint" />
            <mxPoint x="528.5" y="349.41999999999996" as="targetPoint" />
          </mxGeometry>
        </mxCell>
        <mxCell id="J5tVah5155WVLjbqDvri-72" style="edgeStyle=none;rounded=0;orthogonalLoop=1;jettySize=auto;html=1;startArrow=none;startFill=0;endArrow=none;endFill=0;strokeColor=#98A2AE;strokeWidth=1;fontFamily=Manrope;fontSize=10;fontColor=#BEC8D2;exitX=0.5;exitY=0;exitDx=0;exitDy=0;entryX=0.5;entryY=1;entryDx=0;entryDy=0;" edge="1" parent="A0GcrbxxkYMi1dtwf7WZ-1" source="J5tVah5155WVLjbqDvri-62" target="J5tVah5155WVLjbqDvri-70">
          <mxGeometry relative="1" as="geometry">
            <mxPoint x="600" y="390" as="sourcePoint" />
            <mxPoint x="584" y="340" as="targetPoint" />
          </mxGeometry>
        </mxCell>
        <mxCell id="J5tVah5155WVLjbqDvri-73" style="edgeStyle=none;rounded=0;orthogonalLoop=1;jettySize=auto;html=1;startArrow=none;startFill=0;endArrow=none;endFill=0;strokeColor=#98A2AE;strokeWidth=1;fontFamily=Manrope;fontSize=10;fontColor=#BEC8D2;exitX=0.5;exitY=0;exitDx=0;exitDy=0;entryX=0.5;entryY=1;entryDx=0;entryDy=0;" edge="1" parent="A0GcrbxxkYMi1dtwf7WZ-1" source="J5tVah5155WVLjbqDvri-61" target="J5tVah5155WVLjbqDvri-70">
          <mxGeometry relative="1" as="geometry">
            <mxPoint x="488" y="380" as="sourcePoint" />
            <mxPoint x="588" y="340" as="targetPoint" />
          </mxGeometry>
        </mxCell>
        <mxCell id="J5tVah5155WVLjbqDvri-74" style="edgeStyle=none;rounded=0;orthogonalLoop=1;jettySize=auto;html=1;startArrow=none;startFill=0;endArrow=none;endFill=0;strokeColor=#98A2AE;strokeWidth=1;fontFamily=Manrope;fontSize=10;fontColor=#BEC8D2;exitX=0.5;exitY=0;exitDx=0;exitDy=0;entryX=0.5;entryY=1;entryDx=0;entryDy=0;" edge="1" parent="A0GcrbxxkYMi1dtwf7WZ-1" source="J5tVah5155WVLjbqDvri-60" target="J5tVah5155WVLjbqDvri-70">
          <mxGeometry relative="1" as="geometry">
            <mxPoint x="550" y="400" as="sourcePoint" />
            <mxPoint x="604" y="360" as="targetPoint" />
          </mxGeometry>
        </mxCell>
        <mxCell id="J5tVah5155WVLjbqDvri-75" value="" style="shape=curlyBracket;whiteSpace=wrap;html=1;rounded=1;rotation=-90;" vertex="1" parent="A0GcrbxxkYMi1dtwf7WZ-1">
          <mxGeometry x="503.81" y="181.25" width="20" height="583.5" as="geometry" />
        </mxCell>
        <mxCell id="J5tVah5155WVLjbqDvri-76" value="" style="ellipse;whiteSpace=wrap;html=1;aspect=fixed;rounded=1;gradientColor=none;fontFamily=Manrope;fontSize=10;fontColor=#BEC8D2;align=right;strokeColor=none;fillColor=#001135;" vertex="1" parent="A0GcrbxxkYMi1dtwf7WZ-1">
          <mxGeometry x="370" y="179.99999999999997" width="24" height="24" as="geometry" />
        </mxCell>
        <mxCell id="J5tVah5155WVLjbqDvri-77" value="" style="ellipse;whiteSpace=wrap;html=1;aspect=fixed;rounded=1;gradientColor=none;fontFamily=Manrope;fontSize=10;fontColor=#BEC8D2;align=right;strokeColor=none;fillColor=#001135;" vertex="1" parent="A0GcrbxxkYMi1dtwf7WZ-1">
          <mxGeometry x="502.96" y="181.83999999999997" width="24" height="24" as="geometry" />
        </mxCell>
        <mxCell id="J5tVah5155WVLjbqDvri-78" value="" style="ellipse;whiteSpace=wrap;html=1;aspect=fixed;rounded=1;gradientColor=none;fontFamily=Manrope;fontSize=10;fontColor=#BEC8D2;align=right;strokeColor=none;fillColor=#001135;" vertex="1" parent="A0GcrbxxkYMi1dtwf7WZ-1">
          <mxGeometry x="638" y="179.99999999999997" width="24" height="24" as="geometry" />
        </mxCell>
        <mxCell id="J5tVah5155WVLjbqDvri-79" style="edgeStyle=none;rounded=0;orthogonalLoop=1;jettySize=auto;html=1;exitX=0.5;exitY=0;exitDx=0;exitDy=0;entryX=0.5;entryY=1;entryDx=0;entryDy=0;startArrow=none;startFill=0;endArrow=none;endFill=0;strokeColor=#98A2AE;strokeWidth=1;fontFamily=Manrope;fontSize=10;fontColor=#BEC8D2;" edge="1" parent="A0GcrbxxkYMi1dtwf7WZ-1" source="J5tVah5155WVLjbqDvri-89" target="J5tVah5155WVLjbqDvri-87">
          <mxGeometry relative="1" as="geometry" />
        </mxCell>
        <mxCell id="J5tVah5155WVLjbqDvri-80" style="edgeStyle=none;rounded=0;orthogonalLoop=1;jettySize=auto;html=1;entryX=0.5;entryY=1;entryDx=0;entryDy=0;startArrow=none;startFill=0;endArrow=none;endFill=0;strokeColor=#98A2AE;strokeWidth=1;fontFamily=Manrope;fontSize=10;fontColor=#BEC8D2;exitX=0.5;exitY=0;exitDx=0;exitDy=0;" edge="1" parent="A0GcrbxxkYMi1dtwf7WZ-1" source="J5tVah5155WVLjbqDvri-90" target="J5tVah5155WVLjbqDvri-87">
          <mxGeometry relative="1" as="geometry">
            <mxPoint x="741" y="357.42" as="sourcePoint" />
            <mxPoint x="737" y="355.42" as="targetPoint" />
          </mxGeometry>
        </mxCell>
        <mxCell id="J5tVah5155WVLjbqDvri-81" style="edgeStyle=none;rounded=0;orthogonalLoop=1;jettySize=auto;html=1;entryX=0.5;entryY=1;entryDx=0;entryDy=0;startArrow=none;startFill=0;endArrow=none;endFill=0;strokeColor=#98A2AE;strokeWidth=1;fontFamily=Manrope;fontSize=10;fontColor=#BEC8D2;exitX=0.5;exitY=0;exitDx=0;exitDy=0;" edge="1" parent="A0GcrbxxkYMi1dtwf7WZ-1" source="J5tVah5155WVLjbqDvri-89" target="J5tVah5155WVLjbqDvri-88">
          <mxGeometry relative="1" as="geometry">
            <mxPoint x="753" y="367.42" as="sourcePoint" />
            <mxPoint x="737" y="355.42" as="targetPoint" />
          </mxGeometry>
        </mxCell>
        <mxCell id="J5tVah5155WVLjbqDvri-82" style="edgeStyle=none;rounded=0;orthogonalLoop=1;jettySize=auto;html=1;entryX=0.5;entryY=0;entryDx=0;entryDy=0;startArrow=none;startFill=0;endArrow=none;endFill=0;strokeColor=#98A2AE;strokeWidth=1;fontFamily=Manrope;fontSize=10;fontColor=#BEC8D2;exitX=0.5;exitY=1;exitDx=0;exitDy=0;" edge="1" parent="A0GcrbxxkYMi1dtwf7WZ-1" source="J5tVah5155WVLjbqDvri-88" target="J5tVah5155WVLjbqDvri-90">
          <mxGeometry relative="1" as="geometry">
            <mxPoint x="752.9999999999999" y="367.42" as="sourcePoint" />
            <mxPoint x="737" y="355.42" as="targetPoint" />
          </mxGeometry>
        </mxCell>
        <mxCell id="J5tVah5155WVLjbqDvri-83" style="edgeStyle=none;rounded=0;orthogonalLoop=1;jettySize=auto;html=1;entryX=0.5;entryY=1;entryDx=0;entryDy=0;startArrow=none;startFill=0;endArrow=none;endFill=0;strokeColor=#98A2AE;strokeWidth=1;fontFamily=Manrope;fontSize=10;fontColor=#BEC8D2;exitX=0.5;exitY=0;exitDx=0;exitDy=0;" edge="1" parent="A0GcrbxxkYMi1dtwf7WZ-1" source="J5tVah5155WVLjbqDvri-91" target="J5tVah5155WVLjbqDvri-87">
          <mxGeometry relative="1" as="geometry">
            <mxPoint x="782.9999999999998" y="367.42" as="sourcePoint" />
            <mxPoint x="797" y="355.4200000000001" as="targetPoint" />
          </mxGeometry>
        </mxCell>
        <mxCell id="J5tVah5155WVLjbqDvri-84" style="edgeStyle=none;rounded=0;orthogonalLoop=1;jettySize=auto;html=1;entryX=0.5;entryY=1;entryDx=0;entryDy=0;startArrow=none;startFill=0;endArrow=none;endFill=0;strokeColor=#98A2AE;strokeWidth=1;fontFamily=Manrope;fontSize=10;fontColor=#BEC8D2;exitX=0.5;exitY=0;exitDx=0;exitDy=0;" edge="1" parent="A0GcrbxxkYMi1dtwf7WZ-1" source="J5tVah5155WVLjbqDvri-91" target="J5tVah5155WVLjbqDvri-88">
          <mxGeometry relative="1" as="geometry">
            <mxPoint x="782.9999999999998" y="367.42" as="sourcePoint" />
            <mxPoint x="736.9999999999999" y="355.4200000000001" as="targetPoint" />
          </mxGeometry>
        </mxCell>
        <mxCell id="J5tVah5155WVLjbqDvri-85" style="edgeStyle=none;rounded=0;orthogonalLoop=1;jettySize=auto;html=1;entryX=0.5;entryY=1;entryDx=0;entryDy=0;startArrow=none;startFill=0;endArrow=none;endFill=0;strokeColor=#98A2AE;strokeWidth=1;fontFamily=Manrope;fontSize=10;fontColor=#BEC8D2;exitX=0.5;exitY=0;exitDx=0;exitDy=0;" edge="1" parent="A0GcrbxxkYMi1dtwf7WZ-1" source="J5tVah5155WVLjbqDvri-92" target="J5tVah5155WVLjbqDvri-87">
          <mxGeometry relative="1" as="geometry">
            <mxPoint x="813" y="367.42" as="sourcePoint" />
            <mxPoint x="796.9999999999999" y="355.42" as="targetPoint" />
          </mxGeometry>
        </mxCell>
        <mxCell id="J5tVah5155WVLjbqDvri-86" style="edgeStyle=none;rounded=0;orthogonalLoop=1;jettySize=auto;html=1;entryX=0.5;entryY=1;entryDx=0;entryDy=0;startArrow=none;startFill=0;endArrow=none;endFill=0;strokeColor=#98A2AE;strokeWidth=1;fontFamily=Manrope;fontSize=10;fontColor=#BEC8D2;exitX=0.5;exitY=0;exitDx=0;exitDy=0;" edge="1" parent="A0GcrbxxkYMi1dtwf7WZ-1" source="J5tVah5155WVLjbqDvri-92" target="J5tVah5155WVLjbqDvri-88">
          <mxGeometry relative="1" as="geometry">
            <mxPoint x="813" y="367.42" as="sourcePoint" />
            <mxPoint x="737" y="355.42" as="targetPoint" />
          </mxGeometry>
        </mxCell>
        <mxCell id="J5tVah5155WVLjbqDvri-87" value="" style="ellipse;whiteSpace=wrap;html=1;aspect=fixed;rounded=1;gradientColor=none;fontFamily=Manrope;fontSize=10;fontColor=#BEC8D2;align=right;strokeColor=none;fillColor=#124191;" vertex="1" parent="A0GcrbxxkYMi1dtwf7WZ-1">
          <mxGeometry x="668" y="315.41999999999996" width="24" height="24" as="geometry" />
        </mxCell>
        <mxCell id="J5tVah5155WVLjbqDvri-88" value="" style="ellipse;whiteSpace=wrap;html=1;aspect=fixed;rounded=1;gradientColor=none;fontFamily=Manrope;fontSize=10;fontColor=#BEC8D2;align=right;strokeColor=none;fillColor=#124191;" vertex="1" parent="A0GcrbxxkYMi1dtwf7WZ-1">
          <mxGeometry x="710.5" y="315.41999999999996" width="24" height="24" as="geometry" />
        </mxCell>
        <mxCell id="J5tVah5155WVLjbqDvri-89" value="" style="ellipse;whiteSpace=wrap;html=1;aspect=fixed;rounded=1;gradientColor=none;fontFamily=Manrope;fontSize=10;fontColor=#BEC8D2;align=right;strokeColor=none;fillColor=#00C9FF;" vertex="1" parent="A0GcrbxxkYMi1dtwf7WZ-1">
          <mxGeometry x="644" y="380" width="24" height="24" as="geometry" />
        </mxCell>
        <mxCell id="J5tVah5155WVLjbqDvri-90" value="" style="ellipse;whiteSpace=wrap;html=1;aspect=fixed;rounded=1;gradientColor=none;fontFamily=Manrope;fontSize=10;fontColor=#BEC8D2;align=right;strokeColor=none;fillColor=#00C9FF;" vertex="1" parent="A0GcrbxxkYMi1dtwf7WZ-1">
          <mxGeometry x="682" y="380" width="24" height="24" as="geometry" />
        </mxCell>
        <mxCell id="J5tVah5155WVLjbqDvri-91" value="" style="ellipse;whiteSpace=wrap;html=1;aspect=fixed;rounded=1;gradientColor=none;fontFamily=Manrope;fontSize=10;fontColor=#BEC8D2;align=right;strokeColor=none;fillColor=#00C9FF;" vertex="1" parent="A0GcrbxxkYMi1dtwf7WZ-1">
          <mxGeometry x="722" y="380" width="24" height="24" as="geometry" />
        </mxCell>
        <mxCell id="J5tVah5155WVLjbqDvri-92" value="" style="ellipse;whiteSpace=wrap;html=1;aspect=fixed;rounded=1;gradientColor=none;fontFamily=Manrope;fontSize=10;fontColor=#BEC8D2;align=right;strokeColor=none;fillColor=#00C9FF;" vertex="1" parent="A0GcrbxxkYMi1dtwf7WZ-1">
          <mxGeometry x="782" y="380" width="24" height="24" as="geometry" />
        </mxCell>
        <mxCell id="J5tVah5155WVLjbqDvri-93" value="..." style="text;html=1;strokeColor=none;fillColor=none;align=center;verticalAlign=middle;whiteSpace=wrap;rounded=0;" vertex="1" parent="A0GcrbxxkYMi1dtwf7WZ-1">
          <mxGeometry x="729.5" y="312.41999999999996" width="27.5" height="30" as="geometry" />
        </mxCell>
        <mxCell id="J5tVah5155WVLjbqDvri-94" value="..." style="text;html=1;strokeColor=none;fillColor=none;align=center;verticalAlign=middle;whiteSpace=wrap;rounded=0;" vertex="1" parent="A0GcrbxxkYMi1dtwf7WZ-1">
          <mxGeometry x="746" y="380" width="30" height="24" as="geometry" />
        </mxCell>
        <mxCell id="J5tVah5155WVLjbqDvri-96" value="" style="shape=curlyBracket;whiteSpace=wrap;html=1;rounded=1;rotation=-90;" vertex="1" parent="A0GcrbxxkYMi1dtwf7WZ-1">
          <mxGeometry x="715.12" y="336.88" width="20" height="166.25" as="geometry" />
        </mxCell>
        <mxCell id="J5tVah5155WVLjbqDvri-97" value="M x Leaves" style="text;html=1;strokeColor=none;fillColor=none;align=center;verticalAlign=middle;whiteSpace=wrap;rounded=0;" vertex="1" parent="A0GcrbxxkYMi1dtwf7WZ-1">
          <mxGeometry x="672.12" y="430" width="106" height="30" as="geometry" />
        </mxCell>
        <mxCell id="J5tVah5155WVLjbqDvri-99" value="" style="ellipse;whiteSpace=wrap;html=1;aspect=fixed;rounded=1;gradientColor=none;fontFamily=Manrope;fontSize=10;fontColor=#BEC8D2;align=right;strokeColor=none;fillColor=#124191;" vertex="1" parent="A0GcrbxxkYMi1dtwf7WZ-1">
          <mxGeometry x="757" y="315.41999999999996" width="24" height="24" as="geometry" />
        </mxCell>
        <mxCell id="J5tVah5155WVLjbqDvri-100" style="edgeStyle=none;rounded=0;orthogonalLoop=1;jettySize=auto;html=1;entryX=0.5;entryY=1;entryDx=0;entryDy=0;startArrow=none;startFill=0;endArrow=none;endFill=0;strokeColor=#98A2AE;strokeWidth=1;fontFamily=Manrope;fontSize=10;fontColor=#BEC8D2;exitX=0.5;exitY=0;exitDx=0;exitDy=0;" edge="1" parent="A0GcrbxxkYMi1dtwf7WZ-1" source="J5tVah5155WVLjbqDvri-92" target="J5tVah5155WVLjbqDvri-99">
          <mxGeometry relative="1" as="geometry">
            <mxPoint x="804" y="390" as="sourcePoint" />
            <mxPoint x="732.5" y="349.41999999999996" as="targetPoint" />
          </mxGeometry>
        </mxCell>
        <mxCell id="J5tVah5155WVLjbqDvri-101" style="edgeStyle=none;rounded=0;orthogonalLoop=1;jettySize=auto;html=1;startArrow=none;startFill=0;endArrow=none;endFill=0;strokeColor=#98A2AE;strokeWidth=1;fontFamily=Manrope;fontSize=10;fontColor=#BEC8D2;exitX=0.5;exitY=0;exitDx=0;exitDy=0;entryX=0.5;entryY=1;entryDx=0;entryDy=0;" edge="1" parent="A0GcrbxxkYMi1dtwf7WZ-1" source="J5tVah5155WVLjbqDvri-91" target="J5tVah5155WVLjbqDvri-99">
          <mxGeometry relative="1" as="geometry">
            <mxPoint x="804" y="390" as="sourcePoint" />
            <mxPoint x="788" y="340" as="targetPoint" />
          </mxGeometry>
        </mxCell>
        <mxCell id="J5tVah5155WVLjbqDvri-102" style="edgeStyle=none;rounded=0;orthogonalLoop=1;jettySize=auto;html=1;startArrow=none;startFill=0;endArrow=none;endFill=0;strokeColor=#98A2AE;strokeWidth=1;fontFamily=Manrope;fontSize=10;fontColor=#BEC8D2;exitX=0.5;exitY=0;exitDx=0;exitDy=0;entryX=0.5;entryY=1;entryDx=0;entryDy=0;" edge="1" parent="A0GcrbxxkYMi1dtwf7WZ-1" source="J5tVah5155WVLjbqDvri-90" target="J5tVah5155WVLjbqDvri-99">
          <mxGeometry relative="1" as="geometry">
            <mxPoint x="692" y="380" as="sourcePoint" />
            <mxPoint x="792" y="340" as="targetPoint" />
          </mxGeometry>
        </mxCell>
        <mxCell id="J5tVah5155WVLjbqDvri-103" style="edgeStyle=none;rounded=0;orthogonalLoop=1;jettySize=auto;html=1;startArrow=none;startFill=0;endArrow=none;endFill=0;strokeColor=#98A2AE;strokeWidth=1;fontFamily=Manrope;fontSize=10;fontColor=#BEC8D2;exitX=0.5;exitY=0;exitDx=0;exitDy=0;entryX=0.5;entryY=1;entryDx=0;entryDy=0;" edge="1" parent="A0GcrbxxkYMi1dtwf7WZ-1" source="J5tVah5155WVLjbqDvri-89" target="J5tVah5155WVLjbqDvri-99">
          <mxGeometry relative="1" as="geometry">
            <mxPoint x="754" y="400" as="sourcePoint" />
            <mxPoint x="808" y="360" as="targetPoint" />
          </mxGeometry>
        </mxCell>
        <mxCell id="AM26twd8f0DhkBkfEycq-0" value="&lt;font style=&quot;font-size: 14px&quot;&gt;...&lt;/font&gt;" style="text;html=1;strokeColor=none;fillColor=none;align=center;verticalAlign=middle;whiteSpace=wrap;rounded=0;" vertex="1" parent="A0GcrbxxkYMi1dtwf7WZ-1">
          <mxGeometry x="585" y="342.42" width="40" height="25.84" as="geometry" />
        </mxCell>
        <mxCell id="AM26twd8f0DhkBkfEycq-1" style="edgeStyle=none;rounded=0;orthogonalLoop=1;jettySize=auto;html=1;entryX=0.5;entryY=1;entryDx=0;entryDy=0;startArrow=none;startFill=0;endArrow=none;endFill=0;strokeColor=#98A2AE;strokeWidth=1;fontFamily=Manrope;fontSize=10;fontColor=#BEC8D2;exitX=0.5;exitY=0;exitDx=0;exitDy=0;" edge="1" parent="A0GcrbxxkYMi1dtwf7WZ-1" source="J5tVah5155WVLjbqDvri-33" target="J5tVah5155WVLjbqDvri-76">
          <mxGeometry relative="1" as="geometry">
            <mxPoint x="390" y="390" as="sourcePoint" />
            <mxPoint x="365" y="349.41999999999996" as="targetPoint" />
          </mxGeometry>
        </mxCell>
        <mxCell id="AM26twd8f0DhkBkfEycq-2" value="K x Pods" style="text;html=1;strokeColor=none;fillColor=none;align=center;verticalAlign=middle;whiteSpace=wrap;rounded=0;" vertex="1" parent="A0GcrbxxkYMi1dtwf7WZ-1">
          <mxGeometry x="460.80999999999995" y="490" width="106" height="30" as="geometry" />
        </mxCell>
        <mxCell id="AM26twd8f0DhkBkfEycq-3" value="" style="shape=curlyBracket;whiteSpace=wrap;html=1;rounded=1;rotation=90;" vertex="1" parent="A0GcrbxxkYMi1dtwf7WZ-1">
          <mxGeometry x="502.96" y="7.98" width="20" height="299.92" as="geometry" />
        </mxCell>
        <mxCell id="AM26twd8f0DhkBkfEycq-4" value="J x Super-Spines" style="text;html=1;strokeColor=none;fillColor=none;align=center;verticalAlign=middle;whiteSpace=wrap;rounded=0;" vertex="1" parent="A0GcrbxxkYMi1dtwf7WZ-1">
          <mxGeometry x="464" y="110" width="106" height="30" as="geometry" />
        </mxCell>
        <mxCell id="AM26twd8f0DhkBkfEycq-5" style="edgeStyle=none;rounded=0;orthogonalLoop=1;jettySize=auto;html=1;entryX=0.5;entryY=1;entryDx=0;entryDy=0;startArrow=none;startFill=0;endArrow=none;endFill=0;strokeColor=#98A2AE;strokeWidth=1;fontFamily=Manrope;fontSize=10;fontColor=#BEC8D2;exitX=0.5;exitY=0;exitDx=0;exitDy=0;" edge="1" parent="A0GcrbxxkYMi1dtwf7WZ-1" source="J5tVah5155WVLjbqDvri-34" target="J5tVah5155WVLjbqDvri-76">
          <mxGeometry relative="1" as="geometry">
            <mxPoint x="275.9999999999999" y="325.41999999999996" as="sourcePoint" />
            <mxPoint x="414.0000000000002" y="213.99999999999994" as="targetPoint" />
          </mxGeometry>
        </mxCell>
        <mxCell id="AM26twd8f0DhkBkfEycq-6" style="edgeStyle=none;rounded=0;orthogonalLoop=1;jettySize=auto;html=1;entryX=0.5;entryY=1;entryDx=0;entryDy=0;startArrow=none;startFill=0;endArrow=none;endFill=0;strokeColor=#98A2AE;strokeWidth=1;fontFamily=Manrope;fontSize=10;fontColor=#BEC8D2;exitX=0.5;exitY=0;exitDx=0;exitDy=0;" edge="1" parent="A0GcrbxxkYMi1dtwf7WZ-1" source="J5tVah5155WVLjbqDvri-45" target="J5tVah5155WVLjbqDvri-76">
          <mxGeometry relative="1" as="geometry">
            <mxPoint x="318.5" y="325.41999999999996" as="sourcePoint" />
            <mxPoint x="413.9999999999998" y="214" as="targetPoint" />
          </mxGeometry>
        </mxCell>
        <mxCell id="AM26twd8f0DhkBkfEycq-7" style="edgeStyle=none;rounded=0;orthogonalLoop=1;jettySize=auto;html=1;entryX=0.5;entryY=1;entryDx=0;entryDy=0;startArrow=none;startFill=0;endArrow=none;endFill=0;strokeColor=#98A2AE;strokeWidth=1;fontFamily=Manrope;fontSize=10;fontColor=#BEC8D2;exitX=0.5;exitY=0;exitDx=0;exitDy=0;" edge="1" parent="A0GcrbxxkYMi1dtwf7WZ-1" source="J5tVah5155WVLjbqDvri-58" target="J5tVah5155WVLjbqDvri-76">
          <mxGeometry relative="1" as="geometry">
            <mxPoint x="365" y="325.41999999999996" as="sourcePoint" />
            <mxPoint x="413.9999999999998" y="214" as="targetPoint" />
          </mxGeometry>
        </mxCell>
        <mxCell id="AM26twd8f0DhkBkfEycq-8" style="edgeStyle=none;rounded=0;orthogonalLoop=1;jettySize=auto;html=1;entryX=0.5;entryY=1;entryDx=0;entryDy=0;startArrow=none;startFill=0;endArrow=none;endFill=0;strokeColor=#98A2AE;strokeWidth=1;fontFamily=Manrope;fontSize=10;fontColor=#BEC8D2;exitX=0.5;exitY=0;exitDx=0;exitDy=0;" edge="1" parent="A0GcrbxxkYMi1dtwf7WZ-1" source="J5tVah5155WVLjbqDvri-59" target="J5tVah5155WVLjbqDvri-76">
          <mxGeometry relative="1" as="geometry">
            <mxPoint x="486" y="325.41999999999996" as="sourcePoint" />
            <mxPoint x="413.9999999999998" y="214" as="targetPoint" />
          </mxGeometry>
        </mxCell>
        <mxCell id="AM26twd8f0DhkBkfEycq-9" style="edgeStyle=none;rounded=0;orthogonalLoop=1;jettySize=auto;html=1;entryX=0.5;entryY=1;entryDx=0;entryDy=0;startArrow=none;startFill=0;endArrow=none;endFill=0;strokeColor=#98A2AE;strokeWidth=1;fontFamily=Manrope;fontSize=10;fontColor=#BEC8D2;exitX=0.5;exitY=0;exitDx=0;exitDy=0;" edge="1" parent="A0GcrbxxkYMi1dtwf7WZ-1" source="J5tVah5155WVLjbqDvri-70" target="J5tVah5155WVLjbqDvri-76">
          <mxGeometry relative="1" as="geometry">
            <mxPoint x="528.5" y="325.41999999999996" as="sourcePoint" />
            <mxPoint x="413.9999999999998" y="214" as="targetPoint" />
          </mxGeometry>
        </mxCell>
        <mxCell id="AM26twd8f0DhkBkfEycq-10" style="edgeStyle=none;rounded=0;orthogonalLoop=1;jettySize=auto;html=1;entryX=0.5;entryY=1;entryDx=0;entryDy=0;startArrow=none;startFill=0;endArrow=none;endFill=0;strokeColor=#98A2AE;strokeWidth=1;fontFamily=Manrope;fontSize=10;fontColor=#BEC8D2;exitX=0.5;exitY=0;exitDx=0;exitDy=0;" edge="1" parent="A0GcrbxxkYMi1dtwf7WZ-1" source="J5tVah5155WVLjbqDvri-88" target="J5tVah5155WVLjbqDvri-76">
          <mxGeometry relative="1" as="geometry">
            <mxPoint x="800" y="310" as="sourcePoint" />
            <mxPoint x="413.9999999999998" y="214" as="targetPoint" />
          </mxGeometry>
        </mxCell>
        <mxCell id="AM26twd8f0DhkBkfEycq-11" style="edgeStyle=none;rounded=0;orthogonalLoop=1;jettySize=auto;html=1;entryX=0.5;entryY=1;entryDx=0;entryDy=0;startArrow=none;startFill=0;endArrow=none;endFill=0;strokeColor=#98A2AE;strokeWidth=1;fontFamily=Manrope;fontSize=10;fontColor=#BEC8D2;exitX=0.5;exitY=0;exitDx=0;exitDy=0;" edge="1" parent="A0GcrbxxkYMi1dtwf7WZ-1" source="J5tVah5155WVLjbqDvri-33" target="J5tVah5155WVLjbqDvri-77">
          <mxGeometry relative="1" as="geometry">
            <mxPoint x="575" y="325.41999999999996" as="sourcePoint" />
            <mxPoint x="413.9999999999998" y="214" as="targetPoint" />
          </mxGeometry>
        </mxCell>
        <mxCell id="AM26twd8f0DhkBkfEycq-12" style="edgeStyle=none;rounded=0;orthogonalLoop=1;jettySize=auto;html=1;entryX=0.5;entryY=1;entryDx=0;entryDy=0;startArrow=none;startFill=0;endArrow=none;endFill=0;strokeColor=#98A2AE;strokeWidth=1;fontFamily=Manrope;fontSize=10;fontColor=#BEC8D2;exitX=0.5;exitY=0;exitDx=0;exitDy=0;" edge="1" parent="A0GcrbxxkYMi1dtwf7WZ-1" source="J5tVah5155WVLjbqDvri-34" target="J5tVah5155WVLjbqDvri-77">
          <mxGeometry relative="1" as="geometry">
            <mxPoint x="276" y="325.41999999999996" as="sourcePoint" />
            <mxPoint x="563.9999999999998" y="214" as="targetPoint" />
          </mxGeometry>
        </mxCell>
        <mxCell id="AM26twd8f0DhkBkfEycq-13" style="edgeStyle=none;rounded=0;orthogonalLoop=1;jettySize=auto;html=1;entryX=0.5;entryY=1;entryDx=0;entryDy=0;startArrow=none;startFill=0;endArrow=none;endFill=0;strokeColor=#98A2AE;strokeWidth=1;fontFamily=Manrope;fontSize=10;fontColor=#BEC8D2;exitX=0.5;exitY=0;exitDx=0;exitDy=0;" edge="1" parent="A0GcrbxxkYMi1dtwf7WZ-1" source="J5tVah5155WVLjbqDvri-45" target="J5tVah5155WVLjbqDvri-77">
          <mxGeometry relative="1" as="geometry">
            <mxPoint x="318.5" y="325.41999999999996" as="sourcePoint" />
            <mxPoint x="563.9999999999998" y="214" as="targetPoint" />
          </mxGeometry>
        </mxCell>
        <mxCell id="AM26twd8f0DhkBkfEycq-14" style="edgeStyle=none;rounded=0;orthogonalLoop=1;jettySize=auto;html=1;entryX=0.5;entryY=1;entryDx=0;entryDy=0;startArrow=none;startFill=0;endArrow=none;endFill=0;strokeColor=#98A2AE;strokeWidth=1;fontFamily=Manrope;fontSize=10;fontColor=#BEC8D2;exitX=0.5;exitY=0;exitDx=0;exitDy=0;" edge="1" parent="A0GcrbxxkYMi1dtwf7WZ-1" source="J5tVah5155WVLjbqDvri-58" target="J5tVah5155WVLjbqDvri-78">
          <mxGeometry relative="1" as="geometry">
            <mxPoint x="365" y="325.41999999999996" as="sourcePoint" />
            <mxPoint x="563.9999999999998" y="214" as="targetPoint" />
          </mxGeometry>
        </mxCell>
        <mxCell id="AM26twd8f0DhkBkfEycq-15" style="edgeStyle=none;rounded=0;orthogonalLoop=1;jettySize=auto;html=1;entryX=0.5;entryY=1;entryDx=0;entryDy=0;startArrow=none;startFill=0;endArrow=none;endFill=0;strokeColor=#98A2AE;strokeWidth=1;fontFamily=Manrope;fontSize=10;fontColor=#BEC8D2;exitX=0.5;exitY=0;exitDx=0;exitDy=0;" edge="1" parent="A0GcrbxxkYMi1dtwf7WZ-1" source="J5tVah5155WVLjbqDvri-59" target="J5tVah5155WVLjbqDvri-78">
          <mxGeometry relative="1" as="geometry">
            <mxPoint x="486" y="325.41999999999996" as="sourcePoint" />
            <mxPoint x="772" y="214" as="targetPoint" />
          </mxGeometry>
        </mxCell>
        <mxCell id="AM26twd8f0DhkBkfEycq-16" style="edgeStyle=none;rounded=0;orthogonalLoop=1;jettySize=auto;html=1;entryX=0.5;entryY=1;entryDx=0;entryDy=0;startArrow=none;startFill=0;endArrow=none;endFill=0;strokeColor=#98A2AE;strokeWidth=1;fontFamily=Manrope;fontSize=10;fontColor=#BEC8D2;exitX=0.5;exitY=0;exitDx=0;exitDy=0;" edge="1" parent="A0GcrbxxkYMi1dtwf7WZ-1" source="J5tVah5155WVLjbqDvri-70" target="J5tVah5155WVLjbqDvri-78">
          <mxGeometry relative="1" as="geometry">
            <mxPoint x="528.5" y="325.41999999999996" as="sourcePoint" />
            <mxPoint x="769.144" y="212.39200000000005" as="targetPoint" />
          </mxGeometry>
        </mxCell>
        <mxCell id="AM26twd8f0DhkBkfEycq-17" style="edgeStyle=none;rounded=0;orthogonalLoop=1;jettySize=auto;html=1;startArrow=none;startFill=0;endArrow=none;endFill=0;strokeColor=#98A2AE;strokeWidth=1;fontFamily=Manrope;fontSize=10;fontColor=#BEC8D2;entryX=0.5;entryY=1;entryDx=0;entryDy=0;exitX=0.5;exitY=0;exitDx=0;exitDy=0;" edge="1" parent="A0GcrbxxkYMi1dtwf7WZ-1" source="J5tVah5155WVLjbqDvri-87" target="J5tVah5155WVLjbqDvri-76">
          <mxGeometry relative="1" as="geometry">
            <mxPoint x="810" y="320.0000000000001" as="sourcePoint" />
            <mxPoint x="400" y="210" as="targetPoint" />
          </mxGeometry>
        </mxCell>
        <mxCell id="AM26twd8f0DhkBkfEycq-18" style="edgeStyle=none;rounded=0;orthogonalLoop=1;jettySize=auto;html=1;startArrow=none;startFill=0;endArrow=none;endFill=0;strokeColor=#98A2AE;strokeWidth=1;fontFamily=Manrope;fontSize=10;fontColor=#BEC8D2;exitX=0.5;exitY=0;exitDx=0;exitDy=0;entryX=0.5;entryY=1;entryDx=0;entryDy=0;" edge="1" parent="A0GcrbxxkYMi1dtwf7WZ-1" source="J5tVah5155WVLjbqDvri-58" target="J5tVah5155WVLjbqDvri-77">
          <mxGeometry relative="1" as="geometry">
            <mxPoint x="365" y="325.41999999999996" as="sourcePoint" />
            <mxPoint x="560" y="210" as="targetPoint" />
          </mxGeometry>
        </mxCell>
        <mxCell id="AM26twd8f0DhkBkfEycq-19" style="edgeStyle=none;rounded=0;orthogonalLoop=1;jettySize=auto;html=1;startArrow=none;startFill=0;endArrow=none;endFill=0;strokeColor=#98A2AE;strokeWidth=1;fontFamily=Manrope;fontSize=10;fontColor=#BEC8D2;entryX=0.5;entryY=1;entryDx=0;entryDy=0;exitX=0.5;exitY=0;exitDx=0;exitDy=0;" edge="1" parent="A0GcrbxxkYMi1dtwf7WZ-1" source="J5tVah5155WVLjbqDvri-59" target="J5tVah5155WVLjbqDvri-77">
          <mxGeometry relative="1" as="geometry">
            <mxPoint x="520" y="320" as="sourcePoint" />
            <mxPoint x="560" y="210" as="targetPoint" />
          </mxGeometry>
        </mxCell>
        <mxCell id="AM26twd8f0DhkBkfEycq-20" style="edgeStyle=none;rounded=0;orthogonalLoop=1;jettySize=auto;html=1;startArrow=none;startFill=0;endArrow=none;endFill=0;strokeColor=#98A2AE;strokeWidth=1;fontFamily=Manrope;fontSize=10;fontColor=#BEC8D2;entryX=0.5;entryY=1;entryDx=0;entryDy=0;exitX=0.5;exitY=0;exitDx=0;exitDy=0;" edge="1" parent="A0GcrbxxkYMi1dtwf7WZ-1" source="J5tVah5155WVLjbqDvri-70" target="J5tVah5155WVLjbqDvri-77">
          <mxGeometry relative="1" as="geometry">
            <mxPoint x="528.5" y="325.41999999999996" as="sourcePoint" />
            <mxPoint x="564" y="214" as="targetPoint" />
          </mxGeometry>
        </mxCell>
        <mxCell id="AM26twd8f0DhkBkfEycq-21" style="edgeStyle=none;rounded=0;orthogonalLoop=1;jettySize=auto;html=1;startArrow=none;startFill=0;endArrow=none;endFill=0;strokeColor=#98A2AE;strokeWidth=1;fontFamily=Manrope;fontSize=10;fontColor=#BEC8D2;exitX=0.5;exitY=0;exitDx=0;exitDy=0;entryX=0.5;entryY=1;entryDx=0;entryDy=0;" edge="1" parent="A0GcrbxxkYMi1dtwf7WZ-1" source="J5tVah5155WVLjbqDvri-99" target="J5tVah5155WVLjbqDvri-76">
          <mxGeometry relative="1" as="geometry">
            <mxPoint x="788.5" y="325.41999999999996" as="sourcePoint" />
            <mxPoint x="380" y="200" as="targetPoint" />
          </mxGeometry>
        </mxCell>
        <mxCell id="AM26twd8f0DhkBkfEycq-22" value="&lt;font style=&quot;font-size: 14px&quot;&gt;...&lt;/font&gt;" style="text;html=1;strokeColor=none;fillColor=none;align=center;verticalAlign=middle;whiteSpace=wrap;rounded=0;" vertex="1" parent="A0GcrbxxkYMi1dtwf7WZ-1">
          <mxGeometry x="562" y="180.00000000000003" width="40" height="25.84" as="geometry" />
        </mxCell>
        <mxCell id="AM26twd8f0DhkBkfEycq-23" style="edgeStyle=none;rounded=0;orthogonalLoop=1;jettySize=auto;html=1;startArrow=none;startFill=0;endArrow=none;endFill=0;strokeColor=#98A2AE;strokeWidth=1;fontFamily=Manrope;fontSize=10;fontColor=#BEC8D2;entryX=0.5;entryY=1;entryDx=0;entryDy=0;exitX=0.5;exitY=0;exitDx=0;exitDy=0;" edge="1" parent="A0GcrbxxkYMi1dtwf7WZ-1" source="J5tVah5155WVLjbqDvri-87" target="J5tVah5155WVLjbqDvri-78">
          <mxGeometry relative="1" as="geometry">
            <mxPoint x="700" y="310" as="sourcePoint" />
            <mxPoint x="650" y="200" as="targetPoint" />
          </mxGeometry>
        </mxCell>
        <mxCell id="AM26twd8f0DhkBkfEycq-24" style="edgeStyle=none;rounded=0;orthogonalLoop=1;jettySize=auto;html=1;startArrow=none;startFill=0;endArrow=none;endFill=0;strokeColor=#98A2AE;strokeWidth=1;fontFamily=Manrope;fontSize=10;fontColor=#BEC8D2;exitX=0.5;exitY=0;exitDx=0;exitDy=0;entryX=0.5;entryY=1;entryDx=0;entryDy=0;" edge="1" parent="A0GcrbxxkYMi1dtwf7WZ-1" source="J5tVah5155WVLjbqDvri-88" target="J5tVah5155WVLjbqDvri-78">
          <mxGeometry relative="1" as="geometry">
            <mxPoint x="710" y="329.99999999999994" as="sourcePoint" />
            <mxPoint x="650" y="200" as="targetPoint" />
          </mxGeometry>
        </mxCell>
        <mxCell id="AM26twd8f0DhkBkfEycq-25" style="edgeStyle=none;rounded=0;orthogonalLoop=1;jettySize=auto;html=1;startArrow=none;startFill=0;endArrow=none;endFill=0;strokeColor=#98A2AE;strokeWidth=1;fontFamily=Manrope;fontSize=10;fontColor=#BEC8D2;exitX=0.5;exitY=0;exitDx=0;exitDy=0;entryX=0.5;entryY=1;entryDx=0;entryDy=0;" edge="1" parent="A0GcrbxxkYMi1dtwf7WZ-1" source="J5tVah5155WVLjbqDvri-99" target="J5tVah5155WVLjbqDvri-78">
          <mxGeometry relative="1" as="geometry">
            <mxPoint x="750.5" y="325.41999999999996" as="sourcePoint" />
            <mxPoint x="650" y="200" as="targetPoint" />
          </mxGeometry>
        </mxCell>
        <mxCell id="AM26twd8f0DhkBkfEycq-26" style="edgeStyle=none;rounded=0;orthogonalLoop=1;jettySize=auto;html=1;startArrow=none;startFill=0;endArrow=none;endFill=0;strokeColor=#98A2AE;strokeWidth=1;fontFamily=Manrope;fontSize=10;fontColor=#BEC8D2;entryX=0.5;entryY=1;entryDx=0;entryDy=0;exitX=0.5;exitY=0;exitDx=0;exitDy=0;" edge="1" parent="A0GcrbxxkYMi1dtwf7WZ-1" source="J5tVah5155WVLjbqDvri-87" target="J5tVah5155WVLjbqDvri-77">
          <mxGeometry relative="1" as="geometry">
            <mxPoint x="680" y="320" as="sourcePoint" />
            <mxPoint x="520" y="210" as="targetPoint" />
          </mxGeometry>
        </mxCell>
        <mxCell id="AM26twd8f0DhkBkfEycq-27" style="edgeStyle=none;rounded=0;orthogonalLoop=1;jettySize=auto;html=1;startArrow=none;startFill=0;endArrow=none;endFill=0;strokeColor=#98A2AE;strokeWidth=1;fontFamily=Manrope;fontSize=10;fontColor=#BEC8D2;exitX=0.5;exitY=0;exitDx=0;exitDy=0;entryX=0.5;entryY=1;entryDx=0;entryDy=0;" edge="1" parent="A0GcrbxxkYMi1dtwf7WZ-1" source="J5tVah5155WVLjbqDvri-88" target="J5tVah5155WVLjbqDvri-77">
          <mxGeometry relative="1" as="geometry">
            <mxPoint x="690" y="325.41999999999996" as="sourcePoint" />
            <mxPoint x="520" y="210" as="targetPoint" />
          </mxGeometry>
        </mxCell>
        <mxCell id="AM26twd8f0DhkBkfEycq-28" style="edgeStyle=none;rounded=0;orthogonalLoop=1;jettySize=auto;html=1;startArrow=none;startFill=0;endArrow=none;endFill=0;strokeColor=#98A2AE;strokeWidth=1;fontFamily=Manrope;fontSize=10;fontColor=#BEC8D2;exitX=0.5;exitY=0;exitDx=0;exitDy=0;entryX=0.5;entryY=1;entryDx=0;entryDy=0;" edge="1" parent="A0GcrbxxkYMi1dtwf7WZ-1" source="J5tVah5155WVLjbqDvri-99" target="J5tVah5155WVLjbqDvri-77">
          <mxGeometry relative="1" as="geometry">
            <mxPoint x="732.5" y="325.41999999999996" as="sourcePoint" />
            <mxPoint x="524.96" y="215.84000000000003" as="targetPoint" />
          </mxGeometry>
        </mxCell>
        <mxCell id="AM26twd8f0DhkBkfEycq-29" style="edgeStyle=none;rounded=0;orthogonalLoop=1;jettySize=auto;html=1;entryX=0.5;entryY=1;entryDx=0;entryDy=0;startArrow=none;startFill=0;endArrow=none;endFill=0;strokeColor=#98A2AE;strokeWidth=1;fontFamily=Manrope;fontSize=10;fontColor=#BEC8D2;exitX=0.5;exitY=0;exitDx=0;exitDy=0;" edge="1" parent="A0GcrbxxkYMi1dtwf7WZ-1" source="J5tVah5155WVLjbqDvri-45" target="J5tVah5155WVLjbqDvri-78">
          <mxGeometry relative="1" as="geometry">
            <mxPoint x="486" y="325.41999999999996" as="sourcePoint" />
            <mxPoint x="660" y="214" as="targetPoint" />
          </mxGeometry>
        </mxCell>
        <mxCell id="AM26twd8f0DhkBkfEycq-30" style="edgeStyle=none;rounded=0;orthogonalLoop=1;jettySize=auto;html=1;entryX=0.5;entryY=1;entryDx=0;entryDy=0;startArrow=none;startFill=0;endArrow=none;endFill=0;strokeColor=#98A2AE;strokeWidth=1;fontFamily=Manrope;fontSize=10;fontColor=#BEC8D2;exitX=0.5;exitY=0;exitDx=0;exitDy=0;" edge="1" parent="A0GcrbxxkYMi1dtwf7WZ-1" source="J5tVah5155WVLjbqDvri-34" target="J5tVah5155WVLjbqDvri-78">
          <mxGeometry relative="1" as="geometry">
            <mxPoint x="310" y="320" as="sourcePoint" />
            <mxPoint x="660" y="214" as="targetPoint" />
          </mxGeometry>
        </mxCell>
        <mxCell id="AM26twd8f0DhkBkfEycq-31" style="edgeStyle=none;rounded=0;orthogonalLoop=1;jettySize=auto;html=1;entryX=0.5;entryY=1;entryDx=0;entryDy=0;startArrow=none;startFill=0;endArrow=none;endFill=0;strokeColor=#98A2AE;strokeWidth=1;fontFamily=Manrope;fontSize=10;fontColor=#BEC8D2;exitX=0.5;exitY=0;exitDx=0;exitDy=0;" edge="1" parent="A0GcrbxxkYMi1dtwf7WZ-1" source="J5tVah5155WVLjbqDvri-33" target="J5tVah5155WVLjbqDvri-78">
          <mxGeometry relative="1" as="geometry">
            <mxPoint x="318.4999999999999" y="325.41999999999996" as="sourcePoint" />
            <mxPoint x="660" y="213.99999999999994" as="targetPoint" />
          </mxGeometry>
        </mxCell>
      </root>
    </mxGraphModel>
  </diagram>
</mxfile>
